<svg xmlns="http://www.w3.org/2000/svg" data-name="Layer 1" viewBox="0 0 32 32" id="cargo"><path fill="#231f20" d="M31.71,17.8,31,16.65h0L27.75,11a2.12,2.12,0,0,0-1.81-1H21.42V6.67A1.46,1.46,0,0,0,20,5.21H1.46A1.46,1.46,0,0,0,0,6.67V18.42H0v4.91a.49.49,0,0,0,.48.49H4.1a3.45,3.45,0,0,0,6.83,0H23.44a3.45,3.45,0,0,0,6.84,0h1.24a.49.49,0,0,0,.48-.49V18.87A2.12,2.12,0,0,0,31.71,17.8Zm-4.8-6.31,2.87,4.92H24.87V11h1.07A1.14,1.14,0,0,1,26.91,11.49ZM1,6.67a.49.49,0,0,1,.49-.49H20a.49.49,0,0,1,.49.49V17.94H1ZM1,18.91H20.45v3.94H10.94a.5.5,0,0,1,0-.12l0-.14a1.21,1.21,0,0,0-.05-.18.74.74,0,0,0,0-.14l-.06-.18L10.69,22a2,2,0,0,0-.1-.21.59.59,0,0,0,0-.08l-.16-.27-.06-.08-.13-.18-.09-.09L10,20.91l-.1-.09-.13-.12-.11-.09L9.5,20.5l-.12-.08-.15-.09-.13-.07-.16-.08-.13-.05-.18-.07L8.5,20,8.31,20l-.13,0-.22,0-.11,0-.33,0-.34,0-.11,0-.22,0-.13,0L6.53,20l-.13,0-.18.07-.13.05-.16.08-.13.07-.15.09-.12.08-.14.11-.11.09-.13.12-.1.09-.13.15-.09.09-.13.18-.06.08-.16.27a.59.59,0,0,0,0,.08l-.1.21,0,.12-.06.18a.74.74,0,0,0,0,.14,1.21,1.21,0,0,0-.05.18l0,.14a.5.5,0,0,1,0,.12H1Zm6.55,6.91A2.49,2.49,0,0,1,5,23.35v0H5a2.49,2.49,0,0,1,5,0v0s0,0,0,0A2.49,2.49,0,0,1,7.52,25.82Zm19.34,0a2.48,2.48,0,0,1-2.48-2.47v0a2.49,2.49,0,0,1,5,0v.06A2.48,2.48,0,0,1,26.86,25.82Zm4.17-3h-.75a.5.5,0,0,0,0-.12.58.58,0,0,0,0-.14c0-.06,0-.12,0-.18s0-.09,0-.14a1.34,1.34,0,0,0-.07-.18s0-.08,0-.12l-.1-.21,0-.08a2.46,2.46,0,0,0-.17-.27l-.06-.08-.13-.18-.08-.09-.13-.15-.1-.09-.14-.12-.1-.09-.15-.11-.12-.08-.15-.09-.12-.07-.17-.08-.13-.05L28,20.06l-.13,0L27.66,20l-.13,0-.22,0-.11,0-.34,0-.34,0-.11,0-.22,0-.12,0-.2.05-.12,0-.18.07-.13.05-.17.08-.12.07-.16.1-.11.07-.15.11-.1.09-.14.12-.1.09-.13.15-.08.09-.14.19-.05.07c-.06.08-.11.18-.17.27l0,.07-.11.22a.49.49,0,0,1,0,.11c0,.07-.05.13-.07.19a.65.65,0,0,1,0,.13c0,.07,0,.13,0,.19l0,.14a.5.5,0,0,0,0,.12h-2V11H23.9V16.9a.47.47,0,0,0,.48.48h6l.53.91a1.18,1.18,0,0,1,.16.58Z"></path><path fill="#231f20" d="M7.51 21.63a1.7 1.7 0 1 0 1.7 1.7A1.7 1.7 0 0 0 7.51 21.63zm0 2.43a.73.73 0 0 1 0-1.46.73.73 0 1 1 0 1.46zM26.86 21.63a1.7 1.7 0 1 0 1.7 1.7A1.71 1.71 0 0 0 26.86 21.63zm0 2.43a.73.73 0 1 1 .73-.73A.73.73 0 0 1 26.86 24.06zM18.45 7.32H3a.49.49 0 0 0-.49.49v8.51A.49.49 0 0 0 3 16.8H18.45a.49.49 0 0 0 .49-.48V7.81A.49.49 0 0 0 18.45 7.32zM18 15.83H3.45V8.29H18z"></path></svg>